HIERARCHY
ROOT hip
{
  OFFSET 0 0 0
  CHANNELS 6 Xposition Yposition Zposition Zrotation Yrotation Xrotation
  JOINT abdomen
  {
    OFFSET 0 20.6881 -0.73152
    CHANNELS 3 Zrotation Xrotation Yrotation
    JOINT chest
    {
      OFFSET 0 11.7043 -0.48768
      CHANNELS 3 Zrotation Xrotation Yrotation
      JOINT neck
      {
        OFFSET 0 22.1894 -2.19456
        CHANNELS 3 Zrotation Xrotation Yrotation
        JOINT head
        {
          OFFSET -0.24384 7.07133 1.2192
          CHANNELS 3 Zrotation Xrotation Yrotation
          JOINT leftEye
          {
            OFFSET 4.14528 8.04674 8.04672
            CHANNELS 3 Zrotation Xrotation Yrotation
            End Site
            {
              OFFSET 1 0 0
            }
          }
          JOINT rightEye
          {
            OFFSET -3.6576 8.04674 8.04672
            CHANNELS 3 Zrotation Xrotation Yrotation
            End Site
            {
              OFFSET 1 0 0
            }
          }
        }
      }
      JOINT rCollar
      {
        OFFSET -2.68224 19.2634 -4.8768
        CHANNELS 3 Zrotation Xrotation Yrotation
        JOINT rShldr
        {
          OFFSET -8.77824 -1.95073 1.46304
          CHANNELS 3 Zrotation Xrotation Yrotation
          JOINT rForeArm
          {
            OFFSET -28.1742 -1.7115 0.48768
            CHANNELS 3 Zrotation Xrotation Yrotation
            JOINT rHand
            {
              OFFSET -22.5879 0.773209 7.07136
              CHANNELS 3 Zrotation Xrotation Yrotation
              JOINT rThumb1
              {
                OFFSET -1.2192 -0.487915 3.41376
                CHANNELS 3 Zrotation Xrotation Yrotation
                JOINT rThumb2
                {
                  OFFSET -3.37035 -0.52449 3.41376
                  CHANNELS 3 Zrotation Xrotation Yrotation
                  End Site
                  {
                    OFFSET -1.78271 -1.18214 1.43049
                  }
                }
              }
              JOINT rIndex1
              {
                OFFSET -7.75947 0.938293 5.60832
                CHANNELS 3 Zrotation Xrotation Yrotation
                JOINT rIndex2
                {
                  OFFSET -2.54057 -0.884171 1.56538
                  CHANNELS 3 Zrotation Xrotation Yrotation
                  End Site
                  {
                    OFFSET -1.62519 -0.234802 1.16502
                  }
                }
              }
              JOINT rMid1
              {
                OFFSET -8.24714 1.18213 3.41376
                CHANNELS 3 Zrotation Xrotation Yrotation
                JOINT rMid2
                {
                  OFFSET -3.10165 -0.590103 1.0647
                  CHANNELS 3 Zrotation Xrotation Yrotation
                  End Site
                  {
                    OFFSET -2.48547 -0.328903 0.83742
                  }
                }
              }
              JOINT rRing1
              {
                OFFSET -8.82822 0.546677 1.51678
                CHANNELS 3 Zrotation Xrotation Yrotation
                JOINT rRing2
                {
                  OFFSET -2.60934 -0.819778 -0.0198488
                  CHANNELS 3 Zrotation Xrotation Yrotation
                  End Site
                  {
                    OFFSET -2.33842 -0.294052 0.168128
                  }
                }
              }
              JOINT rPinky1
              {
                OFFSET -8.27202 -0.0477905 -0.4584
                CHANNELS 3 Zrotation Xrotation Yrotation
                JOINT rPinky2
                {
                  OFFSET -1.82734 -0.647385 -0.700984
                  CHANNELS 3 Zrotation Xrotation Yrotation
                  End Site
                  {
                    OFFSET -1.69225 -0.51767 -0.607171
                  }
                }
              }
            }
          }
        }
      }
      JOINT lCollar
      {
        OFFSET 2.68224 19.2634 -4.8768
        CHANNELS 3 Zrotation Xrotation Yrotation
        JOINT lShldr
        {
          OFFSET 8.77824 -1.95073 1.46304
          CHANNELS 3 Zrotation Xrotation Yrotation
          JOINT lForeArm
          {
            OFFSET 28.1742 -1.7115 0.48768
            CHANNELS 3 Zrotation Xrotation Yrotation
            JOINT lHand
            {
              OFFSET 22.5879 0.773209 7.07136
              CHANNELS 3 Zrotation Xrotation Yrotation
              JOINT lThumb1
              {
                OFFSET 1.2192 -0.487915 3.41376
                CHANNELS 3 Zrotation Xrotation Yrotation
                JOINT lThumb2
                {
                  OFFSET 3.37035 -0.52449 3.41376
                  CHANNELS 3 Zrotation Xrotation Yrotation
                  End Site
                  {
                    OFFSET 1.78271 -1.18214 1.43049
                  }
                }
              }
              JOINT lIndex1
              {
                OFFSET 7.75947 0.938293 5.60832
                CHANNELS 3 Zrotation Xrotation Yrotation
                JOINT lIndex2
                {
                  OFFSET 2.54057 -0.884171 1.56538
                  CHANNELS 3 Zrotation Xrotation Yrotation
                  End Site
                  {
                    OFFSET 1.62519 -0.234802 1.16502
                  }
                }
              }
              JOINT lMid1
              {
                OFFSET 8.24714 1.18213 3.41376
                CHANNELS 3 Zrotation Xrotation Yrotation
                JOINT lMid2
                {
                  OFFSET 3.10165 -0.590103 1.0647
                  CHANNELS 3 Zrotation Xrotation Yrotation
                  End Site
                  {
                    OFFSET 2.48547 -0.328903 0.83742
                  }
                }
              }
              JOINT lRing1
              {
                OFFSET 8.82822 0.546677 1.51678
                CHANNELS 3 Zrotation Xrotation Yrotation
                JOINT lRing2
                {
                  OFFSET 2.60934 -0.819778 -0.0198488
                  CHANNELS 3 Zrotation Xrotation Yrotation
                  End Site
                  {
                    OFFSET 2.33842 -0.294052 0.168128
                  }
                }
              }
              JOINT lPinky1
              {
                OFFSET 8.27202 -0.0477905 -0.4584
                CHANNELS 3 Zrotation Xrotation Yrotation
                JOINT lPinky2
                {
                  OFFSET 1.82734 -0.647385 -0.700984
                  CHANNELS 3 Zrotation Xrotation Yrotation
                  End Site
                  {
                    OFFSET 1.69225 -0.51767 -0.607171
                  }
                }
              }
            }
          }
        }
      }
    }
  }
  JOINT rButtock
  {
    OFFSET -8.77824 4.35084 1.2192
    CHANNELS 3 Zrotation Xrotation Yrotation
    JOINT rThigh
    {
      OFFSET 0 -1.70687 -2.19456
      CHANNELS 3 Zrotation Xrotation Yrotation
      JOINT rShin
      {
        OFFSET 0 -36.8199 0.73152
        CHANNELS 3 Zrotation Xrotation Yrotation
        JOINT rFoot
        {
          OFFSET 0.73152 -45.1104 -5.12064
          CHANNELS 3 Zrotation Xrotation Yrotation
          End Site
          {
            OFFSET -1.1221 -3.69964 12.103
          }
        }
      }
    }
  }
  JOINT lButtock
  {
    OFFSET 8.77824 4.35084 1.2192
    CHANNELS 3 Zrotation Xrotation Yrotation
    JOINT lThigh
    {
      OFFSET 0 -1.70687 -2.19456
      CHANNELS 3 Zrotation Xrotation Yrotation
      JOINT lShin
      {
        OFFSET 0 -36.8199 0.73152
        CHANNELS 3 Zrotation Xrotation Yrotation
        JOINT lFoot
        {
          OFFSET -0.73152 -45.1104 -5.12064
          CHANNELS 3 Zrotation Xrotation Yrotation
          End Site
          {
            OFFSET 1.1221 -3.69964 12.103
          }
        }
      }
    }
  }
}
MOTION
Frames:	9
Frame Time:	0.00833333
4.6038 80.8698 4.20567 0.9368 -2.4935 -2.394 0.884667 14.6643 -0.282041 3.97716 -6.94396 0.0363206 -11.3115 4.27219 -8.0083 11.0785 4.5171 -13.8518 -0.0 0.0 0.0 -0.0 0.0 0.0 6.66505e-14 -2.06731e-13 -2.5345e-14 37.2238 -34.5972 6.48009 -27.8516 -29.7906 66.9148 -1.63082 33.7074 5.37969 -2.61564e-10 3.42705e-10 3.5592e-10 -4.44818e-10 5.83683e-10 6.2035e-10 -2.61561e-10 3.42705e-10 3.5591e-10 7.73091 5.47488 0.417314 -2.61565e-10 3.42708e-10 3.55926e-10 2.90554 0.965183 0.102902 -2.6156e-10 3.42708e-10 3.55925e-10 10.2786 0.731801 0.0259123 -2.61567e-10 3.4271e-10 3.55936e-10 2.22167 -0.733487 -0.20892 6.63409e-14 -2.06744e-13 -2.55438e-14 140.129 69.4125 177.756 28.3148 -38.1915 -80.7382 2.32477 -39.0573 6.54829 1.01503e-09 3.02318e-10 2.32362e-10 1.73954e-09 5.41283e-10 4.38198e-10 1.01504e-09 3.0233e-10 2.32387e-10 -7.73091 5.47488 -0.417314 1.01503e-09 3.0232e-10 2.32365e-10 -2.90554 0.965183 -0.102902 1.01503e-09 3.02319e-10 2.32363e-10 -10.2786 0.731801 -0.0259123 1.01504e-09 3.02317e-10 2.32355e-10 -2.22167 -0.733487 0.20892 -2.03217e-16 0.0 -3.88251e-19 -5.56154 -9.59727 12.218 -0.174423 27.2265 0.541341 -3.61112 -10.078 -12.3154 2.03217e-16 0.0 3.88251e-19 -2.31335 -10.222 -7.22414 0.039721 28.9564 -0.516495 1.85452 -11.6836 6.69611
4.59491 80.884 4.1224 1.0176 -2.6581 -2.4006 1.18302 14.8248 -0.387606 4.03288 -7.03539 0.0251792 -11.3212 4.2155 -8.00253 10.9918 4.2811 -13.8013 -0.0 0.0 0.0 -0.0 0.0 0.0 7.37159e-14 -1.94248e-13 -2.96038e-14 37.0284 -34.6603 6.49911 -27.8634 -29.852 67.0126 -1.61688 33.5849 5.35467 1.00857e-11 1.38282e-10 3.51725e-10 2.46072e-11 2.27251e-10 6.05739e-10 1.00903e-11 1.38281e-10 3.51715e-10 7.73091 5.47488 0.417314 1.00845e-11 1.38284e-10 3.5173e-10 2.90554 0.965183 0.102902 1.00898e-11 1.38285e-10 3.5173e-10 10.2786 0.731801 0.0259123 1.00825e-11 1.38287e-10 3.5174e-10 2.22167 -0.733487 -0.20892 7.34673e-14 -1.94265e-13 -2.97956e-14 140.316 69.4045 177.339 28.3228 -38.1072 -80.5922 2.31729 -39.0065 6.5364 8.11361e-10 2.28585e-10 8.11327e-11 1.39303e-09 4.10917e-10 1.70017e-10 8.11361e-10 2.28594e-10 8.11512e-11 -7.73091 5.47488 -0.417314 8.11362e-10 2.28585e-10 8.11348e-11 -2.90554 0.965183 -0.102902 8.11352e-10 2.28584e-10 8.11327e-11 -10.2786 0.731801 -0.0259123 8.11366e-10 2.28583e-10 8.11247e-11 -2.22167 -0.733487 0.20892 -2.03217e-16 0.0 -3.88251e-19 -5.62518 -9.68914 12.2652 -0.172988 27.2146 0.540169 -3.60525 -10.0324 -12.3272 2.03217e-16 0.0 3.88251e-19 -2.38276 -10.2617 -7.24287 0.0370538 28.8447 -0.514424 1.85111 -11.6088 6.72373
4.59749 80.9006 4.0523 1.0593 -2.6247 -2.3783 1.50434 15.0699 -0.489956 4.09338 -7.1691 0.0179859 -11.3613 4.14755 -7.9982 10.9255 4.06162 -13.7484 -0.0 0.0 0.0 -0.0 0.0 0.0 7.44166e-14 -1.39985e-13 -3.11626e-14 36.7616 -34.6669 6.44926 -27.8755 -29.9155 67.1137 -1.59398 33.3808 5.31323 3.56056e-10 -1.25857e-10 3.35725e-10 6.22608e-10 -2.3253e-10 5.68907e-10 3.56063e-10 -1.2586e-10 3.35714e-10 7.73091 5.47488 0.417314 3.56054e-10 -1.25857e-10 3.35727e-10 2.90554 0.965183 0.102902 3.56061e-10 -1.25856e-10 3.35729e-10 10.2786 0.731801 0.0259123 3.56052e-10 -1.25853e-10 3.35737e-10 2.22167 -0.733487 -0.20892 7.42794e-14 -1.40004e-13 -3.13552e-14 140.567 69.4319 176.821 28.3305 -38.0219 -80.4447 2.30904 -38.9501 6.52323 4.26605e-10 1.02545e-10 -1.21528e-10 7.36454e-10 1.86816e-10 -1.9355e-10 4.26601e-10 1.02549e-10 -1.21521e-10 -7.73091 5.47488 -0.417314 4.26606e-10 1.02542e-10 -1.21528e-10 -2.90554 0.965183 -0.102902 4.26595e-10 1.02542e-10 -1.2153e-10 -10.2786 0.731801 -0.0259123 4.26611e-10 1.02543e-10 -1.2154e-10 -2.22167 -0.733487 0.20892 -2.03217e-16 0.0 -3.88251e-19 -5.677 -9.75643 12.3151 -0.171001 27.21 0.538673 -3.59199 -9.98531 -12.3141 2.03217e-16 0.0 3.88251e-19 -2.43889 -10.2745 -7.24864 0.0347101 28.7513 -0.513087 1.84837 -11.5464 6.7474
4.59082 80.918 3.98999 1.0555 -2.5771 -2.3491 1.83474 15.3474 -0.588623 4.15223 -7.31352 0.0129543 -11.4053 4.07419 -7.99568 10.8659 3.83228 -13.6968 -0.0 0.0 0.0 -0.0 0.0 0.0 7.23808e-14 -7.29753e-14 -3.14029e-14 36.4718 -34.6699 6.37347 -27.887 -29.9767 67.2113 -1.56895 33.1543 5.26753 6.19831e-10 -3.32549e-10 3.14323e-10 1.07856e-09 -5.91704e-10 5.24953e-10 6.1984e-10 -3.32552e-10 3.14311e-10 7.73091 5.47488 0.417314 6.1983e-10 -3.3255e-10 3.14321e-10 2.90554 0.965183 0.102902 6.19837e-10 -3.32549e-10 3.14325e-10 10.2786 0.731801 0.0259123 6.19827e-10 -3.32545e-10 3.14331e-10 2.22167 -0.733487 -0.20892 7.2361e-14 -7.29944e-14 -3.15994e-14 140.832 69.4704 176.289 28.338 -37.9365 -80.2974 2.29732 -38.8702 6.50456 2.88304e-11 -2.16348e-11 -2.94769e-10 5.67322e-11 -3.45595e-11 -5.0685e-10 2.88234e-11 -2.16364e-11 -2.94774e-10 -7.73091 5.47488 -0.417314 2.88311e-11 -2.16405e-11 -2.94772e-10 -2.90554 0.965183 -0.102902 2.882e-11 -2.16401e-11 -2.94774e-10 -10.2786 0.731801 -0.0259123 2.88371e-11 -2.16369e-11 -2.94786e-10 -2.22167 -0.733487 0.20892 -2.03217e-16 0.0 -3.88251e-19 -5.72262 -9.81783 12.3584 -0.169332 27.2066 0.53694 -3.5743 -9.93526 -12.2869 2.03217e-16 0.0 3.88251e-19 -2.48675 -10.2843 -7.25071 0.0326263 28.6709 -0.512187 1.84633 -11.488 6.77141
4.59285 80.9363 3.91992 1.1546 -2.5663 -2.3285 2.15992 15.6052 -0.683034 4.20302 -7.43712 0.0082978 -11.4265 4.00125 -7.99532 10.7996 3.5667 -13.6508 -0.0 0.0 0.0 -0.0 0.0 0.0 7.12371e-14 -2.22551e-14 -3.17062e-14 36.2074 -34.7223 6.31456 -27.8972 -30.0312 67.2987 -1.54824 32.9644 5.22943 6.44897e-10 -3.64628e-10 2.93921e-10 1.12186e-09 -6.46311e-10 4.88974e-10 6.44907e-10 -3.64632e-10 2.93909e-10 7.73091 5.47488 0.417314 6.44896e-10 -3.6463e-10 2.93918e-10 2.90554 0.965183 0.102902 6.44903e-10 -3.64629e-10 2.93922e-10 10.2786 0.731801 0.0259123 6.44892e-10 -3.64625e-10 2.93928e-10 2.22167 -0.733487 -0.20892 7.12963e-14 -2.22716e-14 -3.19049e-14 141.054 69.4968 175.837 28.3451 -37.852 -80.152 2.2795 -38.7487 6.4762 -2.13897e-10 -8.97871e-11 -3.57742e-10 -3.59225e-10 -1.5675e-10 -6.24226e-10 -2.13905e-10 -8.97914e-11 -3.57752e-10 -7.73091 5.47488 -0.417314 -2.13897e-10 -8.97939e-11 -3.57746e-10 -2.90554 0.965183 -0.102902 -2.13908e-10 -8.9793e-11 -3.57748e-10 -10.2786 0.731801 -0.0259123 -2.1389e-10 -8.97886e-11 -3.57762e-10 -2.22167 -0.733487 0.20892 -2.03217e-16 0.0 -3.88251e-19 -5.76762 -9.892 12.3856 -0.168852 27.1984 0.535059 -3.5551 -9.88083 -12.2565 2.03217e-16 0.0 3.88251e-19 -2.5314 -10.3144 -7.25832 0.0307419 28.5978 -0.511435 1.84495 -11.4252 6.80003
4.60757 80.9503 3.85744 1.2933 -2.5677 -2.2965 2.49313 15.8284 -0.766973 4.23677 -7.53031 0.00541408 -11.4314 3.92414 -8.00174 10.7539 3.27909 -13.6183 -0.0 0.0 0.0 -0.0 0.0 0.0 7.24779e-14 6.57175e-15 -3.167e-14 35.9776 -34.8503 6.27228 -27.9061 -30.0793 67.3755 -1.53334 32.8269 5.20195 2.64067e-10 -1.00981e-10 2.70527e-10 4.63396e-10 -1.84934e-10 4.58448e-10 2.64075e-10 -1.00985e-10 2.70516e-10 7.73091 5.47488 0.417314 2.64066e-10 -1.00984e-10 2.70525e-10 2.90554 0.965183 0.102902 2.6407e-10 -1.00983e-10 2.70527e-10 10.2786 0.731801 0.0259123 2.64061e-10 -1.00979e-10 2.70534e-10 2.22167 -0.733487 -0.20892 7.25605e-14 6.56156e-15 -3.18677e-14 141.17 69.4954 175.541 28.3521 -37.7656 -80.0031 2.25281 -38.5653 6.4336 -2.11059e-10 -6.81872e-11 -2.37763e-10 -3.57658e-10 -1.20162e-10 -4.16938e-10 -2.11064e-10 -6.819e-11 -2.37765e-10 -7.73091 5.47488 -0.417314 -2.11058e-10 -6.81924e-11 -2.37764e-10 -2.90554 0.965183 -0.102902 -2.11068e-10 -6.81916e-11 -2.37768e-10 -10.2786 0.731801 -0.0259123 -2.11053e-10 -6.81875e-11 -2.37781e-10 -2.22167 -0.733487 0.20892 -2.03217e-16 0.0 -3.88251e-19 -5.80576 -9.97818 12.3917 -0.170161 27.1753 0.532806 -3.53312 -9.8177 -12.2208 2.03217e-16 0.0 3.88251e-19 -2.56561 -10.3706 -7.27581 0.0291638 28.5344 -0.510845 1.84449 -11.356 6.8347
4.61065 80.9576 3.7863 1.3601 -2.5823 -2.2199 2.83609 16.0451 -0.842718 4.25935 -7.61031 0.00463401 -11.4297 3.84178 -8.01324 10.7256 2.97645 -13.5951 -0.0 0.0 0.0 -0.0 0.0 0.0 7.39932e-14 2.8278e-14 -3.08147e-14 35.7576 -35.0217 6.22758 -27.9141 -30.1228 67.4447 -1.52076 32.7105 5.1787 -3.97369e-10 3.65948e-10 2.42626e-10 -6.80179e-10 6.31305e-10 4.27506e-10 -3.97363e-10 3.65945e-10 2.42617e-10 7.73091 5.47488 0.417314 -3.97369e-10 3.65945e-10 2.42627e-10 2.90554 0.965183 0.102902 -3.97368e-10 3.65946e-10 2.42626e-10 10.2786 0.731801 0.0259123 -3.97376e-10 3.65949e-10 2.42634e-10 2.22167 -0.733487 -0.20892 7.4069e-14 2.82772e-14 -3.10104e-14 141.225 69.4828 175.337 28.3589 -37.6776 -79.8517 2.21973 -38.3349 6.38043 -6.75228e-11 7.84901e-12 5.00898e-12 -1.17338e-10 1.24696e-11 7.36508e-12 -6.75238e-11 7.85038e-12 5.01971e-12 -7.73091 5.47488 -0.417314 -6.75211e-11 7.84712e-12 5.01017e-12 -2.90554 0.965183 -0.102902 -6.75307e-11 7.84764e-12 5.00464e-12 -10.2786 0.731801 -0.0259123 -6.75181e-11 7.85073e-12 4.99346e-12 -2.22167 -0.733487 0.20892 -2.03217e-16 0.0 -3.88251e-19 -5.83674 -10.0684 12.3826 -0.172676 27.1434 0.530219 -3.50754 -9.74792 -12.1759 2.03217e-16 0.0 3.88251e-19 -2.58959 -10.4404 -7.29765 0.0278804 28.4824 -0.51054 1.84485 -11.285 6.87303
4.59826 80.9676 3.70555 1.3553 -2.599 -2.1799 3.15717 16.2681 -0.922412 4.28657 -7.68575 0.00256824 -11.3995 3.76534 -8.0207 10.6554 2.62163 -13.5665 -0.0 0.0 0.0 -0.0 0.0 0.0 7.40071e-14 4.43928e-14 -3.04051e-14 35.5449 -35.2016 6.19524 -27.921 -30.1604 67.5047 -1.50918 32.603 5.15728 -1.05721e-09 8.32986e-10 2.20338e-10 -1.8209e-09 1.44756e-09 4.06225e-10 -1.0572e-09 8.32983e-10 2.20331e-10 7.73091 5.47488 0.417314 -1.05721e-09 8.32982e-10 2.20343e-10 2.90554 0.965183 0.102902 -1.05721e-09 8.32983e-10 2.20337e-10 10.2786 0.731801 0.0259123 -1.05722e-09 8.32985e-10 2.20347e-10 2.22167 -0.733487 -0.20892 7.40658e-14 4.44026e-14 -3.06004e-14 141.327 69.4835 175.1 28.365 -37.5944 -79.7091 2.18536 -38.0918 6.32481 9.16937e-11 8.89275e-11 2.52153e-10 1.49856e-10 1.54109e-10 4.39754e-10 9.16976e-11 8.89333e-11 2.52178e-10 -7.73091 5.47488 -0.417314 9.16962e-11 8.89291e-11 2.52157e-10 -2.90554 0.965183 -0.102902 9.16874e-11 8.89292e-11 2.5215e-10 -10.2786 0.731801 -0.0259123 9.1697e-11 8.89309e-11 2.52141e-10 -2.22167 -0.733487 0.20892 -2.03217e-16 0.0 -3.88251e-19 -5.87505 -10.1703 12.3651 -0.175482 27.1207 0.527771 -3.48192 -9.67968 -12.129 2.03217e-16 0.0 3.88251e-19 -2.61951 -10.5207 -7.31826 0.0266558 28.4353 -0.51039 1.84544 -11.2129 6.91357
4.57455 80.9777 3.61621 1.3081 -2.6011 -2.1333 3.42501 16.5099 -1.01828 4.3342 -7.76525 -0.00417518 -11.3189 3.70595 -8.01497 10.4845 2.17732 -13.5181 -0.0 0.0 0.0 -0.0 0.0 0.0 7.07442e-14 5.64455e-14 -3.17062e-14 35.3372 -35.355 6.19018 -27.9265 -30.191 67.5536 -1.49734 32.4923 5.13529 -1.43325e-09 1.09696e-09 2.13784e-10 -2.47078e-09 1.90898e-09 4.04683e-10 -1.43324e-09 1.09695e-09 2.13778e-10 7.73091 5.47488 0.417314 -1.43325e-09 1.09695e-09 2.13791e-10 2.90554 0.965183 0.102902 -1.43325e-09 1.09695e-09 2.13783e-10 10.2786 0.731801 0.0259123 -1.43325e-09 1.09696e-09 2.13794e-10 2.22167 -0.733487 -0.20892 7.0795e-14 5.64647e-14 -3.19049e-14 141.584 69.5215 174.702 28.37 -37.5223 -79.5863 2.1545 -37.8708 6.27457 1.41574e-10 1.25654e-10 3.85251e-10 2.32041e-10 2.17719e-10 6.713e-10 1.41581e-10 1.25663e-10 3.85286e-10 -7.73091 5.47488 -0.417314 1.41577e-10 1.25658e-10 3.85257e-10 -2.90554 0.965183 -0.102902 1.41569e-10 1.25657e-10 3.85249e-10 -10.2786 0.731801 -0.0259123 1.41577e-10 1.25658e-10 3.85242e-10 -2.22167 -0.733487 0.20892 -2.03217e-16 0.0 -3.88251e-19 -5.93514 -10.2919 12.3458 -0.177663 27.1257 0.525932 -3.45978 -9.62119 -12.0878 2.03217e-16 0.0 3.88251e-19 -2.67153 -10.6081 -7.33206 0.0252551 28.3863 -0.510265 1.84572 -11.1407 6.95487
